<?xml version="1.0" encoding="iso-8859-1"?>
<!-- Uploaded to: SVG Repo, www.svgrepo.com, Generator: SVG Repo Mixer Tools -->
<svg fill="#000000" height="800px" width="800px" version="1.1" id="Layer_1" xmlns="http://www.w3.org/2000/svg" xmlns:xlink="http://www.w3.org/1999/xlink" 
	 viewBox="0 0 472.615 472.615" xml:space="preserve">
<g>
	<g>
		<path d="M181.231,101.739c-50.572,0-91.482,40.911-91.482,91.362c0,21.47,7.394,41.149,19.68,56.774
			c16.698,21.111,42.7,34.708,71.802,34.708s54.984-13.597,71.682-34.708c12.285-15.625,19.681-35.304,19.681-56.774
			C272.594,142.65,231.683,101.739,181.231,101.739z"/>
	</g>
</g>
<g>
	<g>
		<path d="M272.464,257.105c-1.222,1.745-2.42,3.502-3.748,5.193c-21.461,27.122-53.526,42.65-88.029,42.65
			c-34.58,0-66.694-15.527-88.116-42.601c-1.335-1.698-2.538-3.464-3.767-5.217C36.472,280.319,0,332.574,0,393.473v55.53h361.368
			v-55.53C361.368,332.58,324.808,280.233,272.464,257.105z"/>
	</g>
</g>
<g>
	<g>
		<path d="M291.933,23.613c-39.593,0-73.225,24.875-86.388,59.775c49.9,11.352,87.293,55.992,87.293,109.283
			c0,5.275-0.492,10.455-1.207,15.583c0.101,0.001,0.199,0.018,0.302,0.018c29.39,0,55.529-13.731,72.393-35.052
			c12.407-15.779,19.875-35.654,19.875-57.337C384.201,64.93,342.884,23.613,291.933,23.613z"/>
	</g>
</g>
<g>
	<g>
		<path d="M383.711,180.315c-1.222,1.745-2.42,3.502-3.748,5.193c-21.461,27.121-53.527,42.65-88.029,42.65
			c-1.613,0-3.188-0.202-4.79-0.269c-1.347,4.068-2.892,8.07-4.701,11.969c53.551,24.486,90.067,74.866,97.379,132.355h92.792
			v-55.53C472.615,255.79,436.056,203.443,383.711,180.315z"/>
	</g>
</g>
</svg>